<?xml version="1.0" encoding="UTF-8" standalone="no"?>
<!DOCTYPE svg PUBLIC "-//W3C//DTD SVG 1.1//EN"
 "http://www.w3.org/Graphics/SVG/1.1/DTD/svg11.dtd">
<!-- Generated by graphviz version 2.30.1 (20130226.1711)
 -->
<!-- Title: finite_state_machine Pages: 1 -->
<svg width="124pt" height="360pt"
 viewBox="0.00 0.00 124.05 360.00" xmlns="http://www.w3.org/2000/svg" xmlns:xlink="http://www.w3.org/1999/xlink">
<g id="graph0" class="graph" transform="scale(0.419092 0.419092) rotate(0) translate(4 855)">
<title>finite_state_machine</title>
<polygon fill="white" stroke="white" points="-4,5 -4,-855 293,-855 293,5 -4,5"/>
<!-- WON -->
<g id="node1" class="node"><title>WON</title>
<ellipse fill="none" stroke="black" cx="236" cy="-330" rx="33.2788" ry="33.2788"/>
<ellipse fill="none" stroke="black" cx="236" cy="-330" rx="37.2947" ry="37.2947"/>
<text text-anchor="middle" x="236" y="-326.3" font-family="Times,serif" font-size="14.00">WON</text>
</g>
<!-- WON&#45;&gt;WON -->
<g id="edge2" class="edge"><title>WON&#45;&gt;WON</title>
<path fill="none" stroke="black" d="M233.143,-367.015C233.281,-377.21 234.233,-385 236,-385 237.104,-385 237.891,-381.957 238.359,-377.186"/>
<polygon fill="black" stroke="black" points="241.863,-377.175 238.857,-367.015 234.872,-376.832 241.863,-377.175"/>
<text text-anchor="middle" x="236" y="-388.8" font-family="Times,serif" font-size="14.00">up()</text>
</g>
<!-- WON&#45;&gt;WON -->
<g id="edge3" class="edge"><title>WON&#45;&gt;WON</title>
<path fill="none" stroke="black" d="M230.452,-366.81C229.599,-385.843 231.448,-403 236,-403 239.699,-403 241.613,-391.674 241.743,-377.217"/>
<polygon fill="black" stroke="black" points="245.235,-376.742 241.548,-366.81 238.236,-376.874 245.235,-376.742"/>
<text text-anchor="middle" x="236" y="-406.8" font-family="Times,serif" font-size="14.00">down()</text>
</g>
<!-- WON&#45;&gt;WON -->
<g id="edge4" class="edge"><title>WON&#45;&gt;WON</title>
<path fill="none" stroke="black" d="M228.394,-366.442C225.738,-393.614 228.273,-421 236,-421 242.761,-421 245.547,-400.033 244.358,-376.588"/>
<polygon fill="black" stroke="black" points="247.836,-376.156 243.606,-366.442 240.855,-376.674 247.836,-376.156"/>
<text text-anchor="middle" x="236" y="-424.8" font-family="Times,serif" font-size="14.00">left()</text>
</g>
<!-- WON&#45;&gt;WON -->
<g id="edge5" class="edge"><title>WON&#45;&gt;WON</title>
<path fill="none" stroke="black" d="M226.821,-366.008C221.83,-400.846 224.889,-439 236,-439 246.026,-439 249.496,-407.934 246.411,-376.27"/>
<polygon fill="black" stroke="black" points="249.846,-375.519 245.179,-366.008 242.896,-376.353 249.846,-375.519"/>
<text text-anchor="middle" x="236" y="-442.8" font-family="Times,serif" font-size="14.00">right()</text>
</g>
<!-- WON&#45;&gt;WON -->
<g id="edge6" class="edge"><title>WON&#45;&gt;WON</title>
<path fill="none" stroke="black" d="M225.564,-365.754C217.922,-407.875 221.4,-457 236,-457 249.459,-457 253.467,-415.251 248.024,-375.728"/>
<polygon fill="black" stroke="black" points="251.465,-375.08 246.436,-365.754 244.552,-376.18 251.465,-375.08"/>
<text text-anchor="middle" x="236" y="-460.8" font-family="Times,serif" font-size="14.00">start()</text>
</g>
<!-- WON&#45;&gt;WON -->
<g id="edge7" class="edge"><title>WON&#45;&gt;WON</title>
<path fill="none" stroke="black" d="M224.594,-365.312C214.005,-414.515 217.807,-475 236,-475 252.985,-475 257.427,-422.282 249.326,-375.242"/>
<polygon fill="black" stroke="black" points="252.74,-374.466 247.406,-365.312 245.868,-375.795 252.74,-374.466"/>
<text text-anchor="middle" x="236" y="-478.8" font-family="Times,serif" font-size="14.00">stop()</text>
</g>
<!-- LOST -->
<g id="node2" class="node"><title>LOST</title>
<ellipse fill="none" stroke="black" cx="236" cy="-38" rx="34.3995" ry="34.3995"/>
<ellipse fill="none" stroke="black" cx="236" cy="-38" rx="38.394" ry="38.394"/>
<text text-anchor="middle" x="236" y="-34.3" font-family="Times,serif" font-size="14.00">LOST</text>
</g>
<!-- LOST&#45;&gt;LOST -->
<g id="edge8" class="edge"><title>LOST&#45;&gt;LOST</title>
<path fill="none" stroke="black" d="M233.15,-76.214C233.313,-86.3346 234.263,-94 236,-94 237.086,-94 237.864,-91.0057 238.334,-86.2891"/>
<polygon fill="black" stroke="black" points="241.834,-86.3797 238.85,-76.214 234.843,-86.0221 241.834,-86.3797"/>
<text text-anchor="middle" x="236" y="-97.8" font-family="Times,serif" font-size="14.00">up()</text>
</g>
<!-- LOST&#45;&gt;LOST -->
<g id="edge9" class="edge"><title>LOST&#45;&gt;LOST</title>
<path fill="none" stroke="black" d="M230.42,-76.0745C229.648,-95.0627 231.508,-112 236,-112 239.65,-112 241.562,-100.819 241.737,-86.4409"/>
<polygon fill="black" stroke="black" points="245.231,-86.0204 241.58,-76.0745 238.232,-86.1263 245.231,-86.0204"/>
<text text-anchor="middle" x="236" y="-115.8" font-family="Times,serif" font-size="14.00">down()</text>
</g>
<!-- LOST&#45;&gt;LOST -->
<g id="edge10" class="edge"><title>LOST&#45;&gt;LOST</title>
<path fill="none" stroke="black" d="M228.304,-75.8009C225.798,-102.953 228.363,-130 236,-130 242.682,-130 245.482,-109.292 244.398,-85.9255"/>
<polygon fill="black" stroke="black" points="247.88,-85.5349 243.696,-75.8009 240.897,-86.0191 247.88,-85.5349"/>
<text text-anchor="middle" x="236" y="-133.8" font-family="Times,serif" font-size="14.00">left()</text>
</g>
<!-- LOST&#45;&gt;LOST -->
<g id="edge11" class="edge"><title>LOST&#45;&gt;LOST</title>
<path fill="none" stroke="black" d="M226.701,-75.1915C221.88,-110.116 224.979,-148 236,-148 245.945,-148 249.44,-117.154 246.485,-85.4699"/>
<polygon fill="black" stroke="black" points="249.922,-84.7243 245.299,-75.1915 242.968,-85.5268 249.922,-84.7243"/>
<text text-anchor="middle" x="236" y="-151.8" font-family="Times,serif" font-size="14.00">right()</text>
</g>
<!-- LOST&#45;&gt;LOST -->
<g id="edge12" class="edge"><title>LOST&#45;&gt;LOST</title>
<path fill="none" stroke="black" d="M225.389,-75.0167C217.976,-117.247 221.513,-166 236,-166 249.355,-166 253.405,-124.567 248.148,-85.0076"/>
<polygon fill="black" stroke="black" points="251.591,-84.3683 246.611,-75.0167 244.672,-85.4327 251.591,-84.3683"/>
<text text-anchor="middle" x="236" y="-169.8" font-family="Times,serif" font-size="14.00">start()</text>
</g>
<!-- LOST&#45;&gt;LOST -->
<g id="edge13" class="edge"><title>LOST&#45;&gt;LOST</title>
<path fill="none" stroke="black" d="M224.361,-74.6584C214.062,-123.997 217.941,-184 236,-184 252.859,-184 257.361,-131.701 249.504,-84.6079"/>
<polygon fill="black" stroke="black" points="252.921,-83.8428 247.639,-74.6584 246.041,-85.1319 252.921,-83.8428"/>
<text text-anchor="middle" x="236" y="-187.8" font-family="Times,serif" font-size="14.00">stop()</text>
</g>
<!-- PLAYING -->
<g id="node3" class="node"><title>PLAYING</title>
<ellipse fill="none" stroke="black" cx="52" cy="-271" rx="51.1914" ry="51.1914"/>
<text text-anchor="middle" x="52" y="-267.3" font-family="Times,serif" font-size="14.00">PLAYING</text>
</g>
<!-- PLAYING&#45;&gt;PLAYING -->
<g id="edge20" class="edge"><title>PLAYING&#45;&gt;PLAYING</title>
<path fill="none" stroke="black" d="M48.6816,-322.155C49.0431,-332.553 50.1492,-340 52,-340 53.1567,-340 54.0226,-337.091 54.5976,-332.371"/>
<polygon fill="black" stroke="black" points="58.1058,-332.376 55.3184,-322.155 51.1232,-331.883 58.1058,-332.376"/>
<text text-anchor="middle" x="52" y="-343.8" font-family="Times,serif" font-size="14.00">up()</text>
</g>
<!-- PLAYING&#45;&gt;PLAYING -->
<g id="edge21" class="edge"><title>PLAYING&#45;&gt;PLAYING</title>
<path fill="none" stroke="black" d="M45.127,-321.937C44.8215,-341.631 47.1125,-358 52,-358 56.0093,-358 58.2713,-346.985 58.7862,-332.155"/>
<polygon fill="black" stroke="black" points="62.2878,-331.966 58.873,-321.937 55.2881,-331.907 62.2878,-331.966"/>
<text text-anchor="middle" x="52" y="-361.8" font-family="Times,serif" font-size="14.00">down()</text>
</g>
<!-- PLAYING&#45;&gt;PLAYING -->
<g id="edge22" class="edge"><title>PLAYING&#45;&gt;PLAYING</title>
<path fill="none" stroke="black" d="M42.1813,-321.236C40.2638,-349.672 43.5367,-376 52,-376 59.4384,-376 62.8674,-355.662 62.287,-331.43"/>
<polygon fill="black" stroke="black" points="65.774,-331.065 61.8187,-321.236 58.7813,-331.386 65.774,-331.065"/>
<text text-anchor="middle" x="52" y="-379.8" font-family="Times,serif" font-size="14.00">left()</text>
</g>
<!-- PLAYING&#45;&gt;PLAYING -->
<g id="edge23" class="edge"><title>PLAYING&#45;&gt;PLAYING</title>
<path fill="none" stroke="black" d="M39.7574,-320.898C35.6285,-357.413 39.7094,-394 52,-394 63.1384,-394 67.5342,-363.952 65.1874,-331.139"/>
<polygon fill="black" stroke="black" points="68.6465,-330.534 64.2426,-320.898 61.6761,-331.177 68.6465,-330.534"/>
<text text-anchor="middle" x="52" y="-397.8" font-family="Times,serif" font-size="14.00">right()</text>
</g>
<!-- PLAYING&#45;&gt;PLAYING -->
<g id="edge24" class="edge"><title>PLAYING&#45;&gt;PLAYING</title>
<path fill="none" stroke="black" d="M37.7635,-320.499C30.9479,-364.75 35.6934,-412 52,-412 67.0645,-412 72.2621,-371.674 67.5927,-330.641"/>
<polygon fill="black" stroke="black" points="71.0311,-329.947 66.2365,-320.499 64.0929,-330.875 71.0311,-329.947"/>
<text text-anchor="middle" x="52" y="-415.8" font-family="Times,serif" font-size="14.00">start()</text>
</g>
<!-- PAUSING -->
<g id="node4" class="node"><title>PAUSING</title>
<ellipse fill="none" stroke="black" cx="236" cy="-635" rx="51.9908" ry="51.9908"/>
<text text-anchor="middle" x="236" y="-631.3" font-family="Times,serif" font-size="14.00">PAUSING</text>
</g>
<!-- PLAYING&#45;&gt;PAUSING -->
<g id="edge25" class="edge"><title>PLAYING&#45;&gt;PAUSING</title>
<path fill="none" stroke="black" d="M82.548,-312.431C112.435,-355.101 155.66,-419.174 166,-447 185.857,-500.438 160.829,-521.913 184,-574 186.444,-579.494 189.533,-584.885 192.977,-590.048"/>
<polygon fill="black" stroke="black" points="190.376,-592.426 199.056,-598.501 196.059,-588.339 190.376,-592.426"/>
<text text-anchor="middle" x="144" y="-450.8" font-family="Times,serif" font-size="14.00">stop()</text>
</g>
<!-- PLAYING&#45;&gt;WON -->
<g id="edge26" class="edge"><title>PLAYING&#45;&gt;WON</title>
<path fill="none" stroke="black" d="M103.171,-276.158C123.12,-279.162 146.031,-283.828 166,-291 176.01,-294.595 186.266,-299.575 195.707,-304.775"/>
<polygon fill="black" stroke="black" points="194.055,-307.863 204.473,-309.791 197.531,-301.787 194.055,-307.863"/>
<text text-anchor="middle" x="144" y="-294.8" font-family="Times,serif" font-size="14.00">up()</text>
</g>
<!-- PLAYING&#45;&gt;WON -->
<g id="edge27" class="edge"><title>PLAYING&#45;&gt;WON</title>
<path fill="none" stroke="black" d="M101.397,-256.05C122.161,-252.281 146.156,-251.596 166,-261 177.416,-266.41 175.334,-273.808 184,-283 189.054,-288.361 194.605,-293.844 200.128,-299.084"/>
<polygon fill="black" stroke="black" points="197.891,-301.785 207.591,-306.047 202.666,-296.666 197.891,-301.785"/>
<text text-anchor="middle" x="144" y="-264.8" font-family="Times,serif" font-size="14.00">down()</text>
</g>
<!-- PLAYING&#45;&gt;WON -->
<g id="edge28" class="edge"><title>PLAYING&#45;&gt;WON</title>
<path fill="none" stroke="black" d="M81.8093,-312.755C92.7956,-325.206 106.464,-337.307 122,-344 143.629,-353.318 169.598,-350.931 191.185,-345.716"/>
<polygon fill="black" stroke="black" points="192.326,-349.034 201.077,-343.061 190.511,-342.273 192.326,-349.034"/>
<text text-anchor="middle" x="144" y="-354.8" font-family="Times,serif" font-size="14.00">left()</text>
</g>
<!-- PLAYING&#45;&gt;WON -->
<g id="edge29" class="edge"><title>PLAYING&#45;&gt;WON</title>
<path fill="none" stroke="black" d="M97.1651,-295.523C105.267,-299.407 113.767,-303.094 122,-306 143.534,-313.602 168.268,-319.189 189.095,-323.051"/>
<polygon fill="black" stroke="black" points="188.515,-326.502 198.974,-324.809 189.742,-319.611 188.515,-326.502"/>
<text text-anchor="middle" x="144" y="-322.8" font-family="Times,serif" font-size="14.00">right()</text>
</g>
<!-- PLAYING&#45;&gt;LOST -->
<g id="edge30" class="edge"><title>PLAYING&#45;&gt;LOST</title>
<path fill="none" stroke="black" d="M57.9949,-219.86C65.004,-175.269 81.8038,-111.815 122,-73 139.552,-56.0511 165.15,-47.2956 187.545,-42.7789"/>
<polygon fill="black" stroke="black" points="188.341,-46.1922 197.57,-40.9877 187.11,-39.3014 188.341,-46.1922"/>
<text text-anchor="middle" x="144" y="-76.8" font-family="Times,serif" font-size="14.00">up()</text>
</g>
<!-- PLAYING&#45;&gt;LOST -->
<g id="edge31" class="edge"><title>PLAYING&#45;&gt;LOST</title>
<path fill="none" stroke="black" d="M96.1967,-244.491C119.14,-228.782 146.537,-207.234 166,-183 189.865,-153.285 207.918,-113.958 219.561,-83.7578"/>
<polygon fill="black" stroke="black" points="222.875,-84.8891 223.115,-74.297 216.322,-82.4273 222.875,-84.8891"/>
<text text-anchor="middle" x="144" y="-227.8" font-family="Times,serif" font-size="14.00">down()</text>
</g>
<!-- PLAYING&#45;&gt;LOST -->
<g id="edge32" class="edge"><title>PLAYING&#45;&gt;LOST</title>
<path fill="none" stroke="black" d="M77.3686,-226.263C89.4185,-206.145 105.013,-182.762 122,-164 138.771,-145.477 148.537,-146.873 166,-129 181.221,-113.422 196.084,-94.4567 208.094,-77.8801"/>
<polygon fill="black" stroke="black" points="211.143,-79.6333 214.101,-69.4599 205.444,-75.5679 211.143,-79.6333"/>
<text text-anchor="middle" x="144" y="-167.8" font-family="Times,serif" font-size="14.00">left()</text>
</g>
<!-- PLAYING&#45;&gt;LOST -->
<g id="edge33" class="edge"><title>PLAYING&#45;&gt;LOST</title>
<path fill="none" stroke="black" d="M64.5627,-221.238C74.7672,-186.546 92.6884,-141.086 122,-110 136.999,-94.0925 147.308,-99.3413 166,-88 176.375,-81.705 187.186,-74.3104 197.088,-67.1672"/>
<polygon fill="black" stroke="black" points="199.161,-69.9871 205.162,-61.2557 195.026,-64.339 199.161,-69.9871"/>
<text text-anchor="middle" x="144" y="-113.8" font-family="Times,serif" font-size="14.00">right()</text>
</g>
<!-- PAUSING&#45;&gt;PAUSING -->
<g id="edge14" class="edge"><title>PAUSING&#45;&gt;PAUSING</title>
<path fill="none" stroke="black" d="M232.692,-686.457C233.065,-696.697 234.167,-704 236,-704 237.146,-704 238.006,-701.147 238.581,-696.508"/>
<polygon fill="black" stroke="black" points="242.077,-696.683 239.308,-686.457 235.095,-696.178 242.077,-696.683"/>
<text text-anchor="middle" x="236" y="-707.8" font-family="Times,serif" font-size="14.00">up()</text>
</g>
<!-- PAUSING&#45;&gt;PAUSING -->
<g id="edge15" class="edge"><title>PAUSING&#45;&gt;PAUSING</title>
<path fill="none" stroke="black" d="M229.121,-686.371C228.855,-705.871 231.148,-722 236,-722 239.98,-722 242.238,-711.146 242.775,-696.482"/>
<polygon fill="black" stroke="black" points="246.275,-696.406 242.879,-686.371 239.276,-696.334 246.275,-696.406"/>
<text text-anchor="middle" x="236" y="-725.8" font-family="Times,serif" font-size="14.00">down()</text>
</g>
<!-- PAUSING&#45;&gt;PAUSING -->
<g id="edge16" class="edge"><title>PAUSING&#45;&gt;PAUSING</title>
<path fill="none" stroke="black" d="M226.145,-685.779C224.306,-714.006 227.591,-740 236,-740 243.391,-740 246.824,-719.921 246.298,-695.893"/>
<polygon fill="black" stroke="black" points="249.789,-695.616 245.855,-685.779 242.796,-695.922 249.789,-695.616"/>
<text text-anchor="middle" x="236" y="-743.8" font-family="Times,serif" font-size="14.00">left()</text>
</g>
<!-- PAUSING&#45;&gt;PAUSING -->
<g id="edge17" class="edge"><title>PAUSING&#45;&gt;PAUSING</title>
<path fill="none" stroke="black" d="M223.721,-685.218C219.652,-721.627 223.745,-758 236,-758 247.106,-758 251.508,-728.127 249.208,-695.427"/>
<polygon fill="black" stroke="black" points="252.671,-694.859 248.279,-685.218 245.7,-695.494 252.671,-694.859"/>
<text text-anchor="middle" x="236" y="-761.8" font-family="Times,serif" font-size="14.00">right()</text>
</g>
<!-- PAUSING&#45;&gt;PAUSING -->
<g id="edge18" class="edge"><title>PAUSING&#45;&gt;PAUSING</title>
<path fill="none" stroke="black" d="M221.707,-684.865C214.974,-729.01 219.738,-776 236,-776 251.023,-776 256.233,-735.896 251.631,-694.98"/>
<polygon fill="black" stroke="black" points="255.074,-694.32 250.293,-684.865 248.135,-695.238 255.074,-694.32"/>
<text text-anchor="middle" x="236" y="-779.8" font-family="Times,serif" font-size="14.00">stop()</text>
</g>
<!-- PAUSING&#45;&gt;PLAYING -->
<g id="edge19" class="edge"><title>PAUSING&#45;&gt;PLAYING</title>
<path fill="none" stroke="black" d="M201.031,-596.424C195.123,-589.149 189.21,-581.474 184,-574 152.35,-528.595 145.104,-516.294 122,-466 101.547,-421.477 83.2965,-369.023 70.7099,-329.738"/>
<polygon fill="black" stroke="black" points="73.9953,-328.52 67.6341,-320.047 67.3233,-330.638 73.9953,-328.52"/>
<text text-anchor="middle" x="144" y="-549.8" font-family="Times,serif" font-size="14.00">start()</text>
</g>
<!-- INITIAL -->
<!-- INITIAL&#45;&gt;PAUSING -->
<g id="edge1" class="edge"><title>INITIAL&#45;&gt;PAUSING</title>
<path fill="none" stroke="black" d="M96.5935,-635C119.608,-635 148.235,-635 173.472,-635"/>
<polygon fill="black" stroke="black" points="173.687,-638.5 183.687,-635 173.687,-631.5 173.687,-638.5"/>
</g>
</g>
</svg>
