<?xml version="1.0" encoding="UTF-8" standalone="no"?>
<!DOCTYPE svg PUBLIC "-//W3C//DTD SVG 1.1//EN"
 "http://www.w3.org/Graphics/SVG/1.1/DTD/svg11.dtd">
<!-- Generated by graphviz version 2.30.1 (20130226.1711)
 -->
<!-- Title: finite_state_machine Pages: 1 -->
<svg width="516pt" height="323pt"
 viewBox="0.00 0.00 516.00 322.52" xmlns="http://www.w3.org/2000/svg" xmlns:xlink="http://www.w3.org/1999/xlink">
<g id="graph0" class="graph" transform="scale(1 1) rotate(0) translate(4 318.524)">
<title>finite_state_machine</title>
<polygon fill="white" stroke="white" points="-4,5 -4,-318.524 513,-318.524 513,5 -4,5"/>
<!-- WON -->
<g id="node1" class="node"><title>WON</title>
<polygon fill="none" stroke="black" points="495,-219.524 441,-219.524 441,-183.524 495,-183.524 495,-219.524"/>
<text text-anchor="middle" x="468" y="-197.824" font-family="Times,serif" font-size="14.00">WON</text>
</g>
<!-- LOST -->
<g id="node2" class="node"><title>LOST</title>
<polygon fill="none" stroke="black" points="495,-67.5242 441,-67.5242 441,-31.5242 495,-31.5242 495,-67.5242"/>
<text text-anchor="middle" x="468" y="-45.8242" font-family="Times,serif" font-size="14.00">LOST</text>
</g>
<!-- PLAYING -->
<g id="node3" class="node"><title>PLAYING</title>
<polygon fill="none" stroke="black" points="347.5,-162.524 268.5,-162.524 268.5,-126.524 347.5,-126.524 347.5,-162.524"/>
<text text-anchor="middle" x="308" y="-140.824" font-family="Times,serif" font-size="14.00">PLAYING</text>
</g>
<!-- PAUSING_END -->
<g id="node5" class="node"><title>PAUSING_END</title>
<polygon fill="none" stroke="black" points="508,-314.524 428,-314.524 428,-278.524 508,-278.524 508,-314.524"/>
<text text-anchor="middle" x="468" y="-292.824" font-family="Times,serif" font-size="14.00">PAUSING</text>
</g>
<!-- PLAYING&#45;&gt;PAUSING_END -->
<g id="edge3" class="edge"><title>PLAYING&#45;&gt;PAUSING_END</title>
<path fill="none" stroke="black" d="M313.348,-162.865C320.277,-188.244 336.19,-233.941 366,-260.524 380.536,-273.487 400.061,-281.867 418.068,-287.245"/>
<polygon fill="black" stroke="black" points="417.305,-290.665 427.875,-289.934 419.156,-283.914 417.305,-290.665"/>
<text text-anchor="middle" x="388" y="-287.324" font-family="Times,serif" font-size="14.00">stop()</text>
</g>
<!-- PLAYING&#45;&gt;WON -->
<g id="edge4" class="edge"><title>PLAYING&#45;&gt;WON</title>
<path fill="none" stroke="black" d="M314.263,-162.662C321.74,-184.676 337.764,-220.802 366,-236.524 388.274,-248.926 415.726,-237.939 436.386,-225.094"/>
<polygon fill="black" stroke="black" points="438.378,-227.973 444.789,-219.538 434.517,-222.134 438.378,-227.973"/>
<text text-anchor="middle" x="388" y="-245.324" font-family="Times,serif" font-size="14.00">up()</text>
</g>
<!-- PLAYING&#45;&gt;WON -->
<g id="edge5" class="edge"><title>PLAYING&#45;&gt;WON</title>
<path fill="none" stroke="black" d="M322.21,-162.691C332.544,-175.291 348.127,-191.093 366,-198.524 386.184,-206.916 410.648,-207.85 430.443,-206.597"/>
<polygon fill="black" stroke="black" points="430.941,-210.067 440.612,-205.74 430.353,-203.092 430.941,-210.067"/>
<text text-anchor="middle" x="388" y="-210.324" font-family="Times,serif" font-size="14.00">down()</text>
</g>
<!-- PLAYING&#45;&gt;WON -->
<g id="edge6" class="edge"><title>PLAYING&#45;&gt;WON</title>
<path fill="none" stroke="black" d="M347.961,-157.672C366.762,-164.107 389.611,-172.059 410,-179.524 416.985,-182.082 424.42,-184.889 431.535,-187.617"/>
<polygon fill="black" stroke="black" points="430.376,-190.921 440.966,-191.257 432.897,-184.391 430.376,-190.921"/>
<text text-anchor="middle" x="388" y="-183.324" font-family="Times,serif" font-size="14.00">left()</text>
</g>
<!-- PLAYING&#45;&gt;WON -->
<g id="edge7" class="edge"><title>PLAYING&#45;&gt;WON</title>
<path fill="none" stroke="black" d="M347.772,-138.244C367.156,-136.738 390.563,-137.461 410,-145.524 425.096,-151.787 438.37,-164.145 448.301,-175.663"/>
<polygon fill="black" stroke="black" points="445.592,-177.878 454.624,-183.417 451.017,-173.455 445.592,-177.878"/>
<text text-anchor="middle" x="388" y="-149.324" font-family="Times,serif" font-size="14.00">right()</text>
</g>
<!-- PLAYING&#45;&gt;LOST -->
<g id="edge8" class="edge"><title>PLAYING&#45;&gt;LOST</title>
<path fill="none" stroke="black" d="M339.566,-126.523C359.633,-114.667 386.432,-98.7596 410,-84.5242 417.129,-80.2184 424.737,-75.5781 431.996,-71.1288"/>
<polygon fill="black" stroke="black" points="434.253,-73.8503 440.943,-65.6346 430.59,-67.8853 434.253,-73.8503"/>
<text text-anchor="middle" x="388" y="-113.324" font-family="Times,serif" font-size="14.00">up()</text>
</g>
<!-- PLAYING&#45;&gt;LOST -->
<g id="edge9" class="edge"><title>PLAYING&#45;&gt;LOST</title>
<path fill="none" stroke="black" d="M316.972,-126.198C326.036,-107.701 342.663,-79.8787 366,-65.5242 385.187,-53.7225 410.166,-49.689 430.481,-48.6225"/>
<polygon fill="black" stroke="black" points="430.737,-52.1163 440.625,-48.3098 430.522,-45.1197 430.737,-52.1163"/>
<text text-anchor="middle" x="388" y="-69.3242" font-family="Times,serif" font-size="14.00">down()</text>
</g>
<!-- PLAYING&#45;&gt;LOST -->
<g id="edge10" class="edge"><title>PLAYING&#45;&gt;LOST</title>
<path fill="none" stroke="black" d="M312.236,-126.199C317.941,-100.083 332.52,-53.0517 366,-32.5242 385.411,-20.6231 410.672,-24.8806 431.075,-32.1096"/>
<polygon fill="black" stroke="black" points="430.065,-35.4724 440.654,-35.8393 432.605,-28.9494 430.065,-35.4724"/>
<text text-anchor="middle" x="388" y="-36.3242" font-family="Times,serif" font-size="14.00">left()</text>
</g>
<!-- PLAYING&#45;&gt;LOST -->
<g id="edge11" class="edge"><title>PLAYING&#45;&gt;LOST</title>
<path fill="none" stroke="black" d="M310.355,-126.222C313.741,-95.3426 325.494,-33.6188 366,-6.52422 389.598,9.26024 419.932,-7.88613 441.173,-24.9827"/>
<polygon fill="black" stroke="black" points="438.94,-27.6781 448.835,-31.464 443.46,-22.3336 438.94,-27.6781"/>
<text text-anchor="middle" x="388" y="-10.3242" font-family="Times,serif" font-size="14.00">right()</text>
</g>
<!-- PAUSING -->
<g id="node4" class="node"><title>PAUSING</title>
<polygon fill="none" stroke="black" points="198,-162.524 118,-162.524 118,-126.524 198,-126.524 198,-162.524"/>
<text text-anchor="middle" x="158" y="-140.824" font-family="Times,serif" font-size="14.00">PAUSING</text>
</g>
<!-- PAUSING&#45;&gt;PLAYING -->
<g id="edge2" class="edge"><title>PAUSING&#45;&gt;PLAYING</title>
<path fill="none" stroke="black" d="M198.273,-144.524C216.638,-144.524 238.694,-144.524 258.127,-144.524"/>
<polygon fill="black" stroke="black" points="258.313,-148.024 268.313,-144.524 258.313,-141.024 258.313,-148.024"/>
<text text-anchor="middle" x="233" y="-148.324" font-family="Times,serif" font-size="14.00">start()</text>
</g>
<!-- INITIAL -->
<!-- INITIAL&#45;&gt;PAUSING -->
<g id="edge1" class="edge"><title>INITIAL&#45;&gt;PAUSING</title>
<path fill="none" stroke="black" d="M80.2723,-144.524C89.0593,-144.524 98.4886,-144.524 107.626,-144.524"/>
<polygon fill="black" stroke="black" points="107.768,-148.024 117.768,-144.524 107.768,-141.024 107.768,-148.024"/>
</g>
</g>
</svg>
